<?xml version="1.0" encoding="UTF-8" standalone="no"?>
<!-- Created with Inkscape (http://www.inkscape.org/) -->

<!-- Dziekuje! <3 -->
<!-- Karolino! -->

<svg
   xmlns:dc="http://purl.org/dc/elements/1.1/"
   xmlns:cc="http://creativecommons.org/ns#"
   xmlns:rdf="http://www.w3.org/1999/02/22-rdf-syntax-ns#"
   xmlns:svg="http://www.w3.org/2000/svg"
   xmlns="http://www.w3.org/2000/svg"
   xmlns:sodipodi="http://sodipodi.sourceforge.net/DTD/sodipodi-0.dtd"
   xmlns:inkscape="http://www.inkscape.org/namespaces/inkscape"
   width="176.03914mm"
   height="210.73773mm"
   viewBox="0 0 623.76073 746.7085"
   id="svg2"
   version="1.1"
   inkscape:version="0.91 r13725"
   sodipodi:docname="arrchat.svg">
  <title
     id="title4216">arrchat logo</title>
  <defs
     id="defs4" />
  <sodipodi:namedview
     id="base"
     pagecolor="#ffffff"
     bordercolor="#666666"
     borderopacity="1.0"
     inkscape:pageopacity="0.0"
     inkscape:pageshadow="2"
     inkscape:zoom="0.98994949"
     inkscape:cx="329.54617"
     inkscape:cy="227.45396"
     inkscape:document-units="px"
     inkscape:current-layer="layer1"
     showgrid="false"
     inkscape:window-width="1280"
     inkscape:window-height="971"
     inkscape:window-x="-8"
     inkscape:window-y="22"
     inkscape:window-maximized="1"
     fit-margin-top="0"
     fit-margin-left="0"
     fit-margin-right="0"
     fit-margin-bottom="0" />
  <metadata
     id="metadata7">
    <rdf:RDF>
      <cc:Work
         rdf:about="">
        <dc:format>image/svg+xml</dc:format>
        <dc:type
           rdf:resource="http://purl.org/dc/dcmitype/StillImage" />
        <dc:title>arrchat logo</dc:title>
        <dc:description>dziekuje &lt;3</dc:description>
        <dc:creator>
          <cc:Agent>
            <dc:title>https://wvffle.net/</dc:title>
          </cc:Agent>
        </dc:creator>
        <dc:source>Karolina &lt;3</dc:source>
      </cc:Work>
    </rdf:RDF>
  </metadata>
  <g
     inkscape:label="Layer 1"
     inkscape:groupmode="layer"
     id="layer1"
     transform="translate(-10.717828,-4.7011642)">
    <path
       style="fill:#000000;fill-opacity:1;fill-rule:evenodd;stroke:#000000;stroke-width:3.4000001;stroke-linecap:butt;stroke-linejoin:miter;stroke-miterlimit:4;stroke-dasharray:none;stroke-opacity:1"
       d="M 157.75779,100.38369 129.90065,60.205117 c 91.0798,-30.6244 88.56031,-56.8361299 127.8408,-53.5281699 l 24.5536,2.06776 c 45.50246,3.8319399 55.26754,54.6062599 114.2994,90.8940599 l -55.38252,34.199063"
       id="path4162"
       inkscape:connector-curvature="0"
       sodipodi:nodetypes="ccsscc" />
    <path
       sodipodi:nodetypes="ccsscc"
       inkscape:connector-curvature="0"
       id="path4164"
       d="m 164.1323,99.865507 -26.25141,-37.86262 c 85.82982,-28.85916 83.45555,-53.5599999 120.47185,-50.44272 l 23.1383,1.94857 c 42.87962,3.61106 52.08183,51.45867 107.711,85.65479 L 337.01185,131.3913"
       style="fill:none;fill-opacity:1;fill-rule:evenodd;stroke:#ffcf45;stroke-width:3.20401883;stroke-linecap:butt;stroke-linejoin:miter;stroke-miterlimit:4;stroke-dasharray:none;stroke-opacity:1" />
    <path
       sodipodi:nodetypes="cssccccccccsscccccc"
       inkscape:connector-curvature="0"
       id="path4147"
       d="m 357.61142,749.6979 c 77.04537,0.42901 96.21394,-11.09672 127.09573,-8.32462 53.65952,4.81675 94.45347,-13.211 112.31042,-35.61701 C 737.40071,529.61056 422.93462,318.19442 370.7434,160.77898 c 6.00117,-18.71892 5.32395,-28.93807 4.04061,-38.3858 -9.38837,-1.92193 -19.57033,0.91778 -30.30457,7.07107 C 296.53729,98.205097 206.32971,71.900497 160.63167,96.129207 c -11.22296,-12.44421 -21.75541,-14.5308 -32.32488,-17.17259 -5.28788,9.86441 -9.49528,20.8093 -10.10152,35.355343 -15.50434,3.30239 -27.585929,9.50097 -34.345189,20.20305 -21.79256,3.875 -41.2103,19.5802 -60.861692,61.6193 -17.4019166,45.31065 8.668335,103.88349 25.506352,164.65487 6.04136,21.80433 -43.7804576,88.50692 -35.059473,183.73572 8.457909,92.35614 119.885672,198.98835 147.482262,180.81731 9.85326,-23.14099 -3.08243,-43.29968 -7.15744,-65.33933 15.24998,10.15302 33.14876,17.08247 57.69456,9.30856 -3.51843,18.17895 -22.97357,64.68302 -6.38628,71.23386 15.15159,3.84004 39.58144,-8.88892 76.83032,-52.00562 2.87836,0.65417 -9.92473,41.45207 75.70273,61.15822 z"
       style="fill:#d5003c;fill-opacity:1;fill-rule:evenodd;stroke:none;stroke-width:3.4000001;stroke-linecap:butt;stroke-linejoin:miter;stroke-miterlimit:4;stroke-dasharray:none;stroke-opacity:1" />
    <path
       style="fill:none;fill-opacity:1;fill-rule:evenodd;stroke:#000000;stroke-width:3.4000001;stroke-linecap:butt;stroke-linejoin:miter;stroke-miterlimit:4;stroke-dasharray:none;stroke-opacity:1"
       d="M 547.26755,634.79306 C 516.4579,650.28468 411.65458,613.74081 370.7434,616.35778 c -71.48353,4.79199 -151.6526,101.6128 -13.13198,133.34012 77.04537,0.42901 96.21394,-11.09672 127.09573,-8.32462 53.65952,4.81675 94.45347,-13.211 112.31042,-35.61701 C 737.40071,529.61056 422.93462,318.19442 370.7434,160.77898 c 6.00117,-18.71892 5.32395,-28.93807 4.04061,-38.3858 -9.38837,-1.92193 -19.57033,0.91778 -30.30457,7.07107 C 296.53729,98.205097 206.32971,71.900497 160.63167,96.129207 c -11.22296,-12.44421 -21.75541,-14.5308 -32.32488,-17.17259 -5.28788,9.86441 -9.49528,20.8093 -10.10152,35.355343 -15.50434,3.30239 -27.585929,9.50097 -34.345189,20.20305 -21.79256,3.875 -41.2103,19.5802 -60.861692,61.6193 C 5.5964724,241.44496 31.666724,300.0178 48.504741,360.78918 54.546101,382.59351 4.7242834,449.2961 13.445268,544.5249 21.903177,636.88104 133.33094,743.51325 160.92753,725.34221 180.86321,703.35032 109.22996,559.32152 123.23972,508.32599 m 30.53037,151.67689 c 16.51267,11.41571 33.14876,17.08247 57.69456,9.30856 m 39.0857,-146.50922 c 0.67389,82.81588 -76.39112,202.88967 -45.47198,217.74308 15.15159,3.84004 39.58144,-8.88892 76.83032,-52.00562 m 15.68531,-34.9183 c 18.16559,-22.61643 20.99544,-47.49128 26.61101,-66.31958"
       id="path3351"
       inkscape:connector-curvature="0"
       sodipodi:nodetypes="cccssccccccccssccccccccc" />
    <path
       style="fill:#ffffff;fill-opacity:1;fill-rule:evenodd;stroke:#000000;stroke-width:3;stroke-linecap:butt;stroke-linejoin:miter;stroke-miterlimit:4;stroke-dasharray:none;stroke-opacity:1"
       d="m 242.07523,66.961057 c 20.80802,0.77842 55.5906,-10.12194 57.9575,-8.46002 2.3669,1.66192 3.47045,11.07421 -0.82075,13.63706 -3.14794,1.88005 -8.36978,-3.82838 -16.73065,-2.52539 0,0 -23.4023,4.62781 -37.88072,3.97748 -2.36224,-0.10611 -4.88835,-6.71753 -2.52538,-6.62913 z"
       id="path4170"
       inkscape:connector-curvature="0"
       sodipodi:nodetypes="szssss" />
    <path
       style="fill:#ffffff;fill-opacity:1;fill-rule:evenodd;stroke:#000000;stroke-width:3;stroke-linecap:butt;stroke-linejoin:miter;stroke-miterlimit:4;stroke-dasharray:none;stroke-opacity:1"
       d="m 231.21609,40.697087 c 1.33279,4.48959 2.58105,9.01593 0.12627,15.15229 0,0 8.40975,1.51294 12.2481,3.28299 15.58463,7.18683 31.9691,18.90092 42.42641,29.16816 2.3505,2.30778 7.40601,-7.44923 4.41942,-8.83884 -26.27093,-12.22343 -59.2202,-38.7646 -59.2202,-38.7646 z"
       id="path4172"
       inkscape:connector-curvature="0"
       sodipodi:nodetypes="ccsssc" />
    <path
       style="fill:#ffffff;fill-opacity:1;stroke:#000000;stroke-width:3;stroke-miterlimit:4;stroke-dasharray:none;stroke-opacity:1"
       d="m 285.46384,51.935027 c 0,9.52742 -7.7235,17.25093 -17.25092,17.25093 -9.52743,0 -17.25093,-7.7235 -17.25093,-17.25093 0,-3.81236 1.23666,-7.33589 3.33072,-10.1913 1.42485,-1.9429 7.4925,-11.72605 7.4925,-11.72605 l 2.97026,5.01298 c 1.11704,-0.22725 2.27331,-0.34656 3.45745,-0.34656 4.47461,0 8.55131,1.70362 11.61687,4.49763 l 8.02112,-2.89966 c 0,0 -3.26883,10.09994 -2.82726,12.01636 0.288,1.24992 0.44019,2.29922 0.44019,3.6366 z"
       id="path4174"
       inkscape:connector-curvature="0"
       sodipodi:nodetypes="ssscccscccs" />
    <ellipse
       style="fill:#000000;fill-opacity:1;stroke:#000000;stroke-width:0;stroke-miterlimit:4;stroke-dasharray:none;stroke-opacity:1"
       id="path4180"
       cx="98.845009"
       cy="148.75064"
       rx="36.092541"
       ry="21.354595"
       transform="matrix(0.99133922,-0.13132616,0.14779164,0.98901852,0,0)" />
    <path
       style="fill:#000000;fill-opacity:1;fill-rule:evenodd;stroke:#000000;stroke-width:1px;stroke-linecap:butt;stroke-linejoin:miter;stroke-opacity:1"
       d="m 155.53571,132.71935 c 28.23833,-1.68917 90.24875,-18.94321 107.43039,-38.161983 l 8.21429,1.60714 C 253.17311,113.93159 190.12862,135.59461 155.35714,135.93363 l -3.92857,-1.96428 z"
       id="path4182"
       inkscape:connector-curvature="0"
       sodipodi:nodetypes="cccccc" />
    <ellipse
       style="fill:#ffffff;fill-opacity:1;stroke:#000000;stroke-width:3.5538547;stroke-miterlimit:4;stroke-dasharray:none;stroke-opacity:1"
       id="path4184"
       cx="251.05504"
       cy="186.73969"
       rx="25.303156"
       ry="20.126123"
       transform="matrix(0.99720806,-0.07467321,0.07467321,0.99720806,0,0)" />
    <ellipse
       style="fill:#000000;fill-opacity:1;stroke:#000000;stroke-width:3.4000001;stroke-miterlimit:4;stroke-dasharray:none;stroke-opacity:1"
       id="path4186"
       cx="304.63113"
       cy="51.214054"
       rx="14.89975"
       ry="11.995562"
       transform="matrix(0.90960107,0.41548273,-0.41548273,0.90960107,0,0)" />
    <ellipse
       style="fill:#000000;fill-opacity:1;stroke:#000000;stroke-width:2.96673393;stroke-miterlimit:4;stroke-dasharray:none;stroke-opacity:1"
       id="path4188"
       cx="222.84418"
       cy="94.120415"
       rx="6.6221738"
       ry="4.3238897"
       transform="matrix(0.95821042,0.2860643,-0.2860643,0.95821042,0,0)" />
    <path
       style="fill:none;fill-rule:evenodd;stroke:#000000;stroke-width:3.20000005;stroke-linecap:butt;stroke-linejoin:miter;stroke-miterlimit:4;stroke-dasharray:none;stroke-opacity:1"
       d="m 159.10714,169.59435 c 11.30269,7.04165 19.35104,3.19248 26.25,-10.71429 -7.77484,16.25836 3.49418,18.7189 10.625,21.16072"
       id="path4190"
       inkscape:connector-curvature="0"
       sodipodi:nodetypes="ccc" />
    <path
       style="fill:none;fill-rule:evenodd;stroke:#000000;stroke-width:3.4000001;stroke-linecap:butt;stroke-linejoin:miter;stroke-miterlimit:4;stroke-dasharray:none;stroke-opacity:1"
       d="m 113.73618,290.10652 c 10.36272,27.74344 9.64156,27.63026 35.0262,21.9428"
       id="path4192"
       inkscape:connector-curvature="0"
       sodipodi:nodetypes="cc" />
  </g>
</svg>
