<?xml version="1.0" encoding="UTF-8" standalone="no"?>
<!-- Created with Inkscape (http://www.inkscape.org/) -->

<svg
   xmlns:dc="http://purl.org/dc/elements/1.1/"
   xmlns:cc="http://creativecommons.org/ns#"
   xmlns:rdf="http://www.w3.org/1999/02/22-rdf-syntax-ns#"
   xmlns:svg="http://www.w3.org/2000/svg"
   xmlns="http://www.w3.org/2000/svg"
   xmlns:sodipodi="http://sodipodi.sourceforge.net/DTD/sodipodi-0.dtd"
   xmlns:inkscape="http://www.inkscape.org/namespaces/inkscape"
   width="64"
   height="64"
   viewBox="0 0 64 63.999996"
   id="svg2"
   version="1.1"
   inkscape:version="0.91 r13725"
   sodipodi:docname="favicon.svg">
  <defs
     id="defs4" />
  <sodipodi:namedview
     id="base"
     pagecolor="#ffffff"
     bordercolor="#666666"
     borderopacity="1.0"
     inkscape:pageopacity="0.0"
     inkscape:pageshadow="2"
     inkscape:zoom="3.959798"
     inkscape:cx="36.608435"
     inkscape:cy="12.028528"
     inkscape:document-units="px"
     inkscape:current-layer="layer1"
     showgrid="false"
     inkscape:window-width="1280"
     inkscape:window-height="971"
     inkscape:window-x="-8"
     inkscape:window-y="22"
     inkscape:window-maximized="1"
     fit-margin-top="0"
     fit-margin-left="0"
     fit-margin-right="0"
     fit-margin-bottom="0"
     showguides="true"
     inkscape:guide-bbox="true"
     units="px" />
  <metadata
     id="metadata7">
    <rdf:RDF>
      <cc:Work
         rdf:about="">
        <dc:format>image/svg+xml</dc:format>
        <dc:type
           rdf:resource="http://purl.org/dc/dcmitype/StillImage" />
        <dc:title></dc:title>
      </cc:Work>
    </rdf:RDF>
  </metadata>
  <g
     inkscape:label="Layer 1"
     inkscape:groupmode="layer"
     id="layer1"
     transform="translate(-261.42542,-233.4724)">
    <rect
       style="opacity:1;fill:#d5003c;fill-opacity:1;stroke:none;stroke-width:3.4000001;stroke-miterlimit:4;stroke-dasharray:none;stroke-opacity:1"
       id="rect4792"
       width="64"
       height="64"
       x="261.42542"
       y="233.47241" />
    <path
       style="fill:#ffffff;fill-opacity:1;fill-rule:evenodd;stroke:#000000;stroke-width:2.06598163;stroke-linecap:butt;stroke-linejoin:miter;stroke-miterlimit:4;stroke-dasharray:none;stroke-opacity:1"
       d="m 277.17708,275.17937 c 14.21268,-1.90437 36.54399,-13.36844 38.34464,-12.51728 1.80064,0.8512 3.65,7.10992 1.03732,9.35096 -1.91665,1.64395 -6.12785,-1.61969 -11.64981,0.24199 0,0 -15.34123,5.87665 -25.24327,7.12796 -1.61553,0.20441 -4.10293,-3.9874 -2.48888,-4.20368 z"
       id="path4170"
       inkscape:connector-curvature="0"
       sodipodi:nodetypes="szssss" />
    <path
       style="fill:#ffffff;fill-opacity:1;fill-rule:evenodd;stroke:#000000;stroke-width:2.06598163;stroke-linecap:butt;stroke-linejoin:miter;stroke-miterlimit:4;stroke-dasharray:none;stroke-opacity:1"
       d="m 266.73687,258.62449 c 1.42936,2.89107 2.80573,5.81704 1.85716,10.26856 0,0 5.88424,0.0452 8.69617,0.79611 11.41692,3.05548 23.90595,9.08997 32.20332,14.83533 1.86499,1.29147 4.15527,-5.92133 1.96592,-6.51525 -19.25816,-5.22428 -44.72257,-19.38475 -44.72257,-19.38475 z"
       id="path4172"
       inkscape:connector-curvature="0"
       sodipodi:nodetypes="ccsssc" />
    <path
       style="opacity:1;fill:#ffffff;fill-opacity:1;stroke:#000000;stroke-width:2.06598163;stroke-miterlimit:4;stroke-dasharray:none;stroke-opacity:1"
       d="m 304.86671,259.90924 c 1.11385,6.46593 -3.22488,12.61052 -9.6908,13.72437 -6.46596,1.11383 -12.61052,-3.22493 -13.7244,-9.6908 -0.44547,-2.58733 -0.02,-5.12321 1.06901,-7.30588 0.73987,-1.48513 3.71399,-8.83396 3.71399,-8.83396 l 2.60188,3.05487 c 0.73153,-0.2844 1.50233,-0.50112 2.30592,-0.63948 3.03677,-0.52308 6.00269,0.15641 8.4098,1.69428 l 5.10464,-2.90564 c 0,0 -1.03767,7.23669 -0.51404,8.48564 0.3416,0.81464 0.56773,1.50892 0.72393,2.4166 z"
       id="path4174"
       inkscape:connector-curvature="0"
       sodipodi:nodetypes="ssscccscccs" />
  </g>
</svg>
