<?xml version="1.0" encoding="UTF-8" standalone="no"?>
<!-- Created with Inkscape (http://www.inkscape.org/) -->

<svg
   xmlns:dc="http://purl.org/dc/elements/1.1/"
   xmlns:cc="http://creativecommons.org/ns#"
   xmlns:rdf="http://www.w3.org/1999/02/22-rdf-syntax-ns#"
   xmlns:svg="http://www.w3.org/2000/svg"
   xmlns="http://www.w3.org/2000/svg"
   xmlns:sodipodi="http://sodipodi.sourceforge.net/DTD/sodipodi-0.dtd"
   xmlns:inkscape="http://www.inkscape.org/namespaces/inkscape"
   width="79.366943mm"
   height="32.365376mm"
   viewBox="0 0 281.22145 114.68046"
   id="svg2"
   version="1.1"
   inkscape:version="0.91 r13725"
   sodipodi:docname="arrhat.svg">
  <defs
     id="defs4" />
  <sodipodi:namedview
     id="base"
     pagecolor="#ffffff"
     bordercolor="#666666"
     borderopacity="1.0"
     inkscape:pageopacity="0.0"
     inkscape:pageshadow="2"
     inkscape:zoom="1.4"
     inkscape:cx="157.10227"
     inkscape:cy="-75.445146"
     inkscape:document-units="px"
     inkscape:current-layer="layer1"
     showgrid="false"
     inkscape:window-width="1280"
     inkscape:window-height="971"
     inkscape:window-x="-8"
     inkscape:window-y="22"
     inkscape:window-maximized="1"
     fit-margin-top="0"
     fit-margin-left="0"
     fit-margin-right="0"
     fit-margin-bottom="0"
     showguides="true"
     inkscape:guide-bbox="true" />
  <metadata
     id="metadata7">
    <rdf:RDF>
      <cc:Work
         rdf:about="">
        <dc:format>image/svg+xml</dc:format>
        <dc:type
           rdf:resource="http://purl.org/dc/dcmitype/StillImage" />
        <dc:title></dc:title>
      </cc:Work>
    </rdf:RDF>
  </metadata>
  <g
     inkscape:label="Layer 1"
     inkscape:groupmode="layer"
     id="layer1"
     transform="translate(-169.40961,-201.83688)">
    <path
       style="fill:#000000;fill-opacity:1;fill-rule:evenodd;stroke:#000000;stroke-width:3.4000001;stroke-linecap:butt;stroke-linejoin:miter;stroke-miterlimit:4;stroke-dasharray:none;stroke-opacity:1"
       d="m 210.91929,312.85737 -38.81931,-51.0287 c 71.42689,-29.47943 73.9432,-58.41368 113.36254,-58.29141 l 51.65955,0.16024 c 45.66331,0.14164 46.22058,32.03894 110.55592,57.77859 l -50.28813,53.20609 C 339.34915,304.29806 276.56833,305.1717 210.91929,312.85737 Z"
       id="path4162"
       inkscape:connector-curvature="0"
       sodipodi:nodetypes="ccssccc" />
    <path
       sodipodi:nodetypes="ccssccc"
       inkscape:connector-curvature="0"
       id="path4164"
       d="m 213.7488,309.09774 -33.47922,-46.85215 c 66.55279,-25.83841 70.48722,-54.56636 107.6345,-54.50485 l 44.59155,0.0739 c 43.03134,0.0713 47.18963,30.19213 107.81657,54.44812 l -44.61965,48.57862 C 342.06216,299.8625 273.44658,299.86224 213.7488,309.09774 Z"
       style="fill:none;fill-opacity:1;fill-rule:evenodd;stroke:#ffcf45;stroke-width:3.20401883;stroke-linecap:butt;stroke-linejoin:miter;stroke-miterlimit:4;stroke-dasharray:none;stroke-opacity:1" />
    <path
       style="fill:#ffffff;fill-opacity:1;fill-rule:evenodd;stroke:#000000;stroke-width:3;stroke-linecap:butt;stroke-linejoin:miter;stroke-miterlimit:4;stroke-dasharray:none;stroke-opacity:1"
       d="m 284.29832,265.1008 c 20.63814,-2.76531 53.06537,-19.41224 55.68004,-18.17626 2.61468,1.23599 5.30007,10.32431 1.50624,13.57845 -2.78309,2.38717 -8.89821,-2.35193 -16.91652,0.35151 0,0 -22.27699,8.53349 -36.65565,10.3505 -2.34597,0.29645 -5.95779,-5.79017 -3.61411,-6.1042 z"
       id="path4170"
       inkscape:connector-curvature="0"
       sodipodi:nodetypes="szssss" />
    <path
       style="fill:#ffffff;fill-opacity:1;fill-rule:evenodd;stroke:#000000;stroke-width:3;stroke-linecap:butt;stroke-linejoin:miter;stroke-miterlimit:4;stroke-dasharray:none;stroke-opacity:1"
       d="m 269.13815,241.06154 c 2.07561,4.19816 4.07416,8.4469 2.69674,14.91092 0,0 8.54452,0.0633 12.62765,1.15606 16.57847,4.43682 34.71374,13.1994 46.76226,21.54234 2.70816,1.87526 6.03391,-8.59837 2.85476,-9.46079 -27.96469,-7.58618 -64.94141,-28.14853 -64.94141,-28.14853 z"
       id="path4172"
       inkscape:connector-curvature="0"
       sodipodi:nodetypes="ccsssc" />
    <path
       style="fill:#ffffff;fill-opacity:1;stroke:#000000;stroke-width:3;stroke-miterlimit:4;stroke-dasharray:none;stroke-opacity:1"
       d="m 324.50628,242.9271 c 1.6174,9.38913 -4.68282,18.31169 -14.07195,19.9291 -9.38914,1.6174 -18.3117,-4.68283 -19.9291,-14.07196 -0.6472,-3.75703 -0.0267,-7.43935 1.55226,-10.60881 1.07434,-2.15659 5.3931,-12.82779 5.3931,-12.82779 l 3.77816,4.43597 c 1.06225,-0.41358 2.18148,-0.72745 3.34844,-0.92848 4.40966,-0.75962 8.71639,0.2272 12.21178,2.46024 l 7.41243,-4.21927 c 0,0 -1.50678,10.50827 -0.74628,12.32191 0.49601,1.18289 0.82412,2.19112 1.05116,3.50909 z"
       id="path4174"
       inkscape:connector-curvature="0"
       sodipodi:nodetypes="ssscccscccs" />
  </g>
</svg>
