<?xml version="1.0" encoding="UTF-8" standalone="no"?>
<!-- Created with Inkscape (http://www.inkscape.org/) -->

<svg
   xmlns:dc="http://purl.org/dc/elements/1.1/"
   xmlns:cc="http://creativecommons.org/ns#"
   xmlns:rdf="http://www.w3.org/1999/02/22-rdf-syntax-ns#"
   xmlns:svg="http://www.w3.org/2000/svg"
   xmlns="http://www.w3.org/2000/svg"
   xmlns:sodipodi="http://sodipodi.sourceforge.net/DTD/sodipodi-0.dtd"
   xmlns:inkscape="http://www.inkscape.org/namespaces/inkscape"
   width="16"
   height="16"
   viewBox="0 0 16 15.999999"
   id="svg2"
   version="1.1"
   inkscape:version="0.91 r13725"
   sodipodi:docname="favicon.svg">
  <defs
     id="defs4" />
  <sodipodi:namedview
     id="base"
     pagecolor="#ffffff"
     bordercolor="#666666"
     borderopacity="1.0"
     inkscape:pageopacity="0.0"
     inkscape:pageshadow="2"
     inkscape:zoom="7.919596"
     inkscape:cx="34.367429"
     inkscape:cy="13.169812"
     inkscape:document-units="px"
     inkscape:current-layer="layer1"
     showgrid="false"
     inkscape:window-width="1280"
     inkscape:window-height="971"
     inkscape:window-x="-8"
     inkscape:window-y="22"
     inkscape:window-maximized="1"
     fit-margin-top="0"
     fit-margin-left="0"
     fit-margin-right="0"
     fit-margin-bottom="0"
     showguides="true"
     inkscape:guide-bbox="true"
     units="px" />
  <metadata
     id="metadata7">
    <rdf:RDF>
      <cc:Work
         rdf:about="">
        <dc:format>image/svg+xml</dc:format>
        <dc:type
           rdf:resource="http://purl.org/dc/dcmitype/StillImage" />
        <dc:title></dc:title>
      </cc:Work>
    </rdf:RDF>
  </metadata>
  <g
     inkscape:label="Layer 1"
     inkscape:groupmode="layer"
     id="layer1"
     transform="translate(-261.42542,-281.4724)">
    <rect
       style="opacity:1;fill:#d5003c;fill-opacity:1;stroke:none;stroke-width:3.4000001;stroke-miterlimit:4;stroke-dasharray:none;stroke-opacity:1"
       id="rect4792"
       width="16"
       height="16"
       x="261.42542"
       y="281.47241" />
    <path
       style="fill:#ffffff;fill-opacity:1;fill-rule:evenodd;stroke:#000000;stroke-width:0.51649541;stroke-linecap:butt;stroke-linejoin:miter;stroke-miterlimit:4;stroke-dasharray:none;stroke-opacity:1"
       d="m 265.36333,291.89915 c 3.55317,-0.47609 9.136,-3.34211 9.58616,-3.12932 0.45016,0.2128 0.9125,1.77748 0.25933,2.33774 -0.47916,0.41099 -1.53196,-0.40492 -2.91245,0.0605 0,0 -3.83531,1.46916 -6.31082,1.78199 -0.40388,0.0511 -1.02573,-0.99685 -0.62222,-1.05092 z"
       id="path4170"
       inkscape:connector-curvature="0"
       sodipodi:nodetypes="szssss" />
    <path
       style="fill:#ffffff;fill-opacity:1;fill-rule:evenodd;stroke:#000000;stroke-width:0.51649541;stroke-linecap:butt;stroke-linejoin:miter;stroke-miterlimit:4;stroke-dasharray:none;stroke-opacity:1"
       d="m 262.75328,287.76043 c 0.35734,0.72277 0.70143,1.45426 0.46429,2.56714 0,0 1.47106,0.0113 2.17404,0.19903 2.85423,0.76387 5.97649,2.27249 8.05083,3.70883 0.46625,0.32287 1.03882,-1.48033 0.49148,-1.62881 -4.81454,-1.30607 -11.18064,-4.84619 -11.18064,-4.84619 z"
       id="path4172"
       inkscape:connector-curvature="0"
       sodipodi:nodetypes="ccsssc" />
    <path
       style="opacity:1;fill:#ffffff;fill-opacity:1;stroke:#000000;stroke-width:0.51649541;stroke-miterlimit:4;stroke-dasharray:none;stroke-opacity:1"
       d="m 272.28574,288.08162 c 0.27846,1.61648 -0.80622,3.15263 -2.4227,3.43109 -1.61649,0.27846 -3.15263,-0.80623 -3.4311,-2.4227 -0.11137,-0.64683 -0.005,-1.2808 0.26725,-1.82647 0.18497,-0.37128 0.9285,-2.20849 0.9285,-2.20849 l 0.65047,0.76372 c 0.18288,-0.0711 0.37558,-0.12528 0.57648,-0.15987 0.75919,-0.13077 1.50067,0.0391 2.10245,0.42357 l 1.27616,-0.72641 c 0,0 -0.25942,1.80917 -0.12851,2.12141 0.0854,0.20366 0.14193,0.37723 0.18098,0.60415 z"
       id="path4174"
       inkscape:connector-curvature="0"
       sodipodi:nodetypes="ssscccscccs" />
  </g>
</svg>
